<svg xmlns="http://www.w3.org/2000/svg" viewBox="-60 -60 120 120">
  <defs>
    <radialGradient id="bg" cx="0" cy="0" r="1">
      <stop offset="0" stop-color="#141a2b"/>
      <stop offset="1" stop-color="#05070d"/>
    </radialGradient>
  </defs>

  <circle cx="0" cy="0" r="55" fill="url(#bg)" stroke="#1b243b" stroke-width="2"/>
  <circle cx="0" cy="0" r="30" fill="none" stroke="#1f2f5a" stroke-width="1.5" stroke-dasharray="6 6"/>

  <path
    d="M28.000 0.000 L28.005 0.000 L28.019 0.001 L28.043 0.002 L28.077 0.005 L28.119 0.010 L28.172 0.017 L28.233 0.026 L28.304 0.039 L28.383 0.056 L28.472 0.076 L28.569 0.101 L28.675 0.131 L28.789 0.166 L28.911 0.207 L29.040 0.254 L29.178 0.308 L29.322 0.368 L29.474 0.436 L29.632 0.511 L29.796 0.594 L29.967 0.686 L30.143 0.786 L30.325 0.895 L30.511 1.013 L30.702 1.140 L30.897 1.277 L31.096 1.424 L31.299 1.581 L31.504 1.749 L31.712 1.926 L31.922 2.115 L32.133 2.314 L32.346 2.525 L32.559 2.746 L32.773 2.979 L32.987 3.223 L33.199 3.478 L33.411 3.745 L33.621 4.023 L33.829 4.313 L34.034 4.614 L34.237 4.926 L34.435 5.249 L34.630 5.584 L34.820 5.930 L35.006 6.287 L35.186 6.655 L35.360 7.034 L35.528 7.423 L35.689 7.823 L35.842 8.233 L35.989 8.653 L36.127 9.083 L36.256 9.523 L36.377 9.971 L36.488 10.429 L36.590 10.895 L36.682 11.370 L36.763 11.853 L36.834 12.343 L36.893 12.841 L36.941 13.346 L36.978 13.857 L37.002 14.375 L37.014 14.898 L37.013 15.427 L37.000 15.961 L36.973 16.499 L36.934 17.041 L36.881 17.587 L36.814 18.136 L36.733 18.688 L36.638 19.242 L36.530 19.798 L36.407 20.355 L36.270 20.912 L36.118 21.470 L35.953 22.028 L35.772 22.585 L35.578 23.140 L35.368 23.694 L35.145 24.246 L34.907 24.795 L34.655 25.340 L34.388 25.882 L34.108 26.420 L33.813 26.952 L33.505 27.480 L33.183 28.002 L32.847 28.517 L32.498 29.026 L32.136 29.528 L31.761 30.022 L31.373 30.509 L30.973 30.987 L30.561 31.455 L30.137 31.915 L29.701 32.365 L29.255 32.805 L28.797 33.234 L28.329 33.653 L27.851 34.061 L27.363 34.456 L26.866 34.841 L26.360 35.212 L25.845 35.572 L25.323 35.919 L24.792 36.253 L24.255 36.573 L23.710 36.881 L23.160 37.174 L22.603 37.454 L22.041 37.720 L21.475 37.971 L20.904 38.208 L20.329 38.431 L19.750 38.640 L19.169 38.833 L18.585 39.012 L18.000 39.177 L17.413 39.327 L16.825 39.462 L16.237 39.582 L15.650 39.688 L15.062 39.779 L14.476 39.855 L13.892 39.917 L13.309 39.965 L12.729 39.999 L12.153 40.018 L11.580 40.024 L11.011 40.016 L10.446 39.994 L9.886 39.959 L9.332 39.911 L8.784 39.851 L8.241 39.778 L7.706 39.692 L7.177 39.595 L6.656 39.486 L6.142 39.365 L5.637 39.234 L5.140 39.092 L4.652 38.940 L4.174 38.778 L3.704 38.607 L3.245 38.426 L2.795 38.237 L2.355 38.040 L1.926 37.835 L1.508 37.622 L1.101 37.403 L0.704 37.177 L0.319 36.945 L-0.054 36.707 L-0.417 36.465 L-0.767 36.218 L-1.106 35.966 L-1.433 35.711 L-1.749 35.453 L-2.052 35.192 L-2.344 34.929 L-2.623 34.664 L-2.891 34.398 L-3.147 34.131 L-3.392 33.864 L-3.624 33.597 L-3.845 33.331 L-4.055 33.065 L-4.253 32.802 L-4.441 32.540 L-4.617 32.280 L-4.782 32.024 L-4.937 31.771 L-5.081 31.521 L-5.216 31.276 L-5.340 31.035 L-5.455 30.799 L-5.560 30.568 L-5.657 30.343 L-5.745 30.124 L-5.824 29.911 L-5.895 29.705 L-5.959 29.506 L-6.015 29.314 L-6.064 29.130 L-6.107 28.953 L-6.143 28.784 L-6.174 28.624 L-6.199 28.472 L-6.219 28.329 L-6.235 28.194 L-6.247 28.069 L-6.255 27.953 L-6.260 27.846 L-6.262 27.748 L-6.261 27.660 L-6.259 27.581 L-6.256 27.512 L-6.251 27.453 L-6.246 27.403 L-6.241 27.363 L-6.237 27.333 L-6.233 27.312 L-6.231 27.300 L-6.231 27.298 L-6.233 27.306 L-6.237 27.322 L-6.245 27.348 L-6.256 27.382 L-6.271 27.426 L-6.291 27.477 L-6.316 27.538 L-6.345 27.606 L-6.381 27.682 L-6.422 27.766 L-6.470 27.857 L-6.525 27.955 L-6.587 28.061 L-6.656 28.172 L-6.733 28.290 L-6.818 28.413 L-6.912 28.542 L-7.014 28.676 L-7.125 28.815 L-7.245 28.958 L-7.375 29.105 L-7.514 29.256 L-7.664 29.409 L-7.823 29.566 L-7.993 29.724 L-8.173 29.884 L-8.363 30.046 L-8.565 30.209 L-8.777 30.372 L-8.999 30.535 L-9.233 30.697 L-9.478 30.859 L-9.733 31.019 L-10.000 31.177 L-10.278 31.333 L-10.566 31.486 L-10.865 31.635 L-11.176 31.781 L-11.497 31.923 L-11.828 32.060 L-12.170 32.191 L-12.522 32.317 L-12.885 32.437 L-13.258 32.551 L-13.640 32.657 L-14.032 32.757 L-14.434 32.848 L-14.844 32.931 L-15.264 33.005 L-15.692 33.071 L-16.128 33.127 L-16.572 33.173 L-17.024 33.209 L-17.483 33.234 L-17.950 33.249 L-18.423 33.253 L-18.902 33.245 L-19.386 33.225 L-19.877 33.194 L-20.372 33.150 L-20.872 33.093 L-21.376 33.024 L-21.883 32.942 L-22.394 32.847 L-22.908 32.738 L-23.424 32.616 L-23.942 32.480 L-24.461 32.331 L-24.981 32.168 L-25.502 31.990 L-26.022 31.799 L-26.542 31.593 L-27.061 31.374 L-27.578 31.140 L-28.093 30.893 L-28.605 30.631 L-29.114 30.355 L-29.620 30.065 L-30.121 29.762 L-30.618 29.444 L-31.110 29.113 L-31.597 28.769 L-32.077 28.411 L-32.551 28.040 L-33.018 27.656 L-33.477 27.259 L-33.929 26.850 L-34.372 26.428 L-34.807 25.995 L-35.232 25.549 L-35.648 25.092 L-36.054 24.625 L-36.449 24.146 L-36.834 23.657 L-37.207 23.158 L-37.570 22.649 L-37.920 22.130 L-38.258 21.603 L-38.584 21.068 L-38.897 20.524 L-39.198 19.972 L-39.485 19.413 L-39.758 18.848 L-40.018 18.276 L-40.264 17.698 L-40.496 17.115 L-40.714 16.526 L-40.917 15.934 L-41.106 15.337 L-41.280 14.737 L-41.440 14.134 L-41.584 13.529 L-41.714 12.922 L-41.829 12.313 L-41.929 11.703 L-42.014 11.093 L-42.084 10.483 L-42.140 9.873 L-42.180 9.265 L-42.206 8.658 L-42.217 8.053 L-42.214 7.451 L-42.196 6.852 L-42.164 6.256 L-42.118 5.664 L-42.059 5.077 L-41.985 4.495 L-41.898 3.918 L-41.798 3.347 L-41.685 2.783 L-41.560 2.224 L-41.422 1.674 L-41.272 1.130 L-41.110 0.594 L-40.937 0.067 L-40.752 -0.452 L-40.557 -0.961 L-40.352 -1.462 L-40.137 -1.953 L-39.912 -2.434 L-39.678 -2.905 L-39.435 -3.365 L-39.184 -3.815 L-38.924 -4.253 L-38.658 -4.681 L-38.384 -5.097 L-38.104 -5.502 L-37.818 -5.895 L-37.526 -6.276 L-37.230 -6.645 L-36.928 -7.002 L-36.622 -7.347 L-36.313 -7.680 L-36.000 -8.000 L-35.685 -8.308 L-35.367 -8.604 L-35.047 -8.887 L-34.727 -9.158 L-34.405 -9.417 L-34.083 -9.663 L-33.761 -9.897 L-33.440 -10.120 L-33.120 -10.330 L-32.802 -10.529 L-32.485 -10.716 L-32.171 -10.891 L-31.860 -11.055 L-31.552 -11.208 L-31.247 -11.351 L-30.947 -11.482 L-30.652 -11.604 L-30.361 -11.715 L-30.076 -11.816 L-29.796 -11.908 L-29.523 -11.991 L-29.255 -12.065 L-28.995 -12.130 L-28.741 -12.187 L-28.495 -12.236 L-28.256 -12.278 L-28.025 -12.313 L-27.803 -12.341 L-27.588 -12.363 L-27.382 -12.379 L-27.185 -12.390 L-26.997 -12.395 L-26.818 -12.396 L-26.648 -12.393 L-26.488 -12.386 L-26.337 -12.376 L-26.195 -12.363 L-26.063 -12.348 L-25.941 -12.331 L-25.829 -12.313 L-25.726 -12.293 L-25.634 -12.274 L-25.550 -12.254 L-25.477 -12.234 L-25.413 -12.216 L-25.359 -12.199 L-25.315 -12.183 L-25.279 -12.170 L-25.253 -12.160 L-25.236 -12.153 L-25.228 -12.149 L-25.229 -12.149 L-25.238 -12.154 L-25.255 -12.164 L-25.281 -12.178 L-25.314 -12.199 L-25.355 -12.225 L-25.403 -12.258 L-25.458 -12.297 L-25.520 -12.343 L-25.588 -12.397 L-25.662 -12.458 L-25.742 -12.527 L-25.827 -12.605 L-25.918 -12.691 L-26.012 -12.786 L-26.111 -12.890 L-26.213 -13.003 L-26.319 -13.125 L-26.428 -13.258 L-26.539 -13.400 L-26.652 -13.552 L-26.767 -13.714 L-26.883 -13.886 L-27.000 -14.069 L-27.117 -14.262 L-27.234 -14.466 L-27.350 -14.680 L-27.464 -14.905 L-27.578 -15.140 L-27.689 -15.386 L-27.797 -15.643 L-27.903 -15.910 L-28.005 -16.187 L-28.103 -16.475 L-28.196 -16.773 L-28.285 -17.081 L-28.368 -17.399 L-28.446 -17.727 L-28.517 -18.065 L-28.582 -18.412 L-28.640 -18.768 L-28.690 -19.134 L-28.732 -19.508 L-28.766 -19.890 L-28.791 -20.281 L-28.807 -20.680 L-28.814 -21.086 L-28.811 -21.500 L-28.797 -21.921 L-28.773 -22.348 L-28.739 -22.782 L-28.693 -23.221 L-28.636 -23.666 L-28.567 -24.116 L-28.486 -24.571 L-28.394 -25.030 L-28.288 -25.493 L-28.170 -25.959 L-28.040 -26.428 L-27.896 -26.900 L-27.739 -27.373 L-27.569 -27.848 L-27.386 -28.325 L-27.189 -28.801 L-26.979 -29.278 L-26.754 -29.755 L-26.517 -30.230 L-26.265 -30.705 L-26.000 -31.177 L-25.721 -31.647 L-25.428 -32.114 L-25.122 -32.578 L-24.802 -33.038 L-24.469 -33.493 L-24.123 -33.944 L-23.763 -34.389 L-23.390 -34.829 L-23.004 -35.262 L-22.605 -35.689 L-22.194 -36.108 L-21.771 -36.520 L-21.335 -36.923 L-20.887 -37.318 L-20.428 -37.704 L-19.958 -38.081 L-19.477 -38.448 L-18.984 -38.804 L-18.482 -39.151 L-17.970 -39.486 L-17.447 -39.810 L-16.916 -40.122 L-16.376 -40.422 L-15.827 -40.710 L-15.270 -40.986 L-14.705 -41.248 L-14.134 -41.497 L-13.555 -41.733 L-12.970 -41.956 L-12.379 -42.164 L-11.783 -42.359 L-11.181 -42.539 L-10.576 -42.705 L-9.966 -42.856 L-9.353 -42.993 L-8.736 -43.115 L-8.118 -43.222 L-7.497 -43.314 L-6.875 -43.391 L-6.251 -43.453 L-5.628 -43.500 L-5.004 -43.532 L-4.381 -43.549 L-3.759 -43.551 L-3.138 -43.538 L-2.520 -43.511 L-1.904 -43.468 L-1.291 -43.411 L-0.682 -43.340 L-0.076 -43.254 L0.525 -43.154 L1.121 -43.040 L1.711 -42.913 L2.296 -42.772 L2.874 -42.617 L3.446 -42.450 L4.010 -42.270 L4.567 -42.078 L5.116 -41.873 L5.657 -41.657 L6.189 -41.429 L6.712 -41.190 L7.225 -40.940 L7.729 -40.680 L8.222 -40.410 L8.705 -40.131 L9.178 -39.842 L9.639 -39.544 L10.090 -39.238 L10.529 -38.924 L10.956 -38.603 L11.371 -38.275 L11.775 -37.940 L12.166 -37.599 L12.545 -37.253 L12.912 -36.901 L13.266 -36.545 L13.607 -36.184 L13.936 -35.820 L14.251 -35.453 L14.554 -35.083 L14.844 -34.711 L15.122 -34.337 L15.386 -33.962 L15.638 -33.586 L15.877 -33.210 L16.104 -32.834 L16.318 -32.459 L16.519 -32.084 L16.709 -31.712 L16.886 -31.341 L17.051 -30.973 L17.205 -30.609 L17.347 -30.247 L17.477 -29.889 L17.597 -29.536 L17.706 -29.187 L17.804 -28.843 L17.892 -28.505 L17.970 -28.172 L18.038 -27.846 L18.097 -27.526 L18.147 -27.212 L18.188 -26.906 L18.221 -26.608 L18.246 -26.317 L18.264 -26.034 L18.274 -25.760 L18.278 -25.493 L18.276 -25.236 L18.267 -24.988 L18.253 -24.748 L18.235 -24.518 L18.211 -24.297 L18.184 -24.086 L18.152 -23.885 L18.118 -23.693 L18.081 -23.511 L18.041 -23.339 L18.000 -23.177 L17.957 -23.025 L17.914 -22.883 L17.870 -22.750 L17.826 -22.628 L17.782 -22.516 L17.739 -22.413 L17.698 -22.320 L17.659 -22.237 L17.622 -22.163 L17.587 -22.098 L17.556 -22.043 L17.528 -21.997 L17.505 -21.959 L17.485 -21.930 L17.471 -21.909 L17.462 -21.896 L17.458 -21.891 L17.460 -21.894 L17.468 -21.904 L17.483 -21.921 L17.506 -21.944 L17.535 -21.974 L17.572 -22.010 L17.617 -22.051 L17.669 -22.097 L17.731 -22.149 L17.801 -22.205 L17.880 -22.264 L17.968 -22.328 L18.065 -22.394 L18.171 -22.464 L18.288 -22.536 L18.414 -22.609 L18.550 -22.684 L18.696 -22.761 L18.852 -22.837 L19.018 -22.914 L19.194 -22.990 L19.381 -23.066 L19.578 -23.140 L19.785 -23.213 L20.002 -23.283 L20.229 -23.351 L20.467 -23.415 L20.714 -23.476 L20.972 -23.533 L21.239 -23.585 L21.516 -23.632 L21.803 -23.674 L22.098 -23.710 L22.403 -23.740 L22.717 -23.763 L23.040 -23.779 L23.371 -23.787 L23.710 -23.787 L24.058 -23.779 L24.413 -23.763 L24.775 -23.737 L25.144 -23.702 L25.520 -23.657 L25.902 -23.602 L26.291 -23.536 L26.685 -23.460 L27.084 -23.373 L27.488 -23.275 L27.896 -23.165 L28.309 -23.043 L28.725 -22.909 L29.144 -22.764 L29.566 -22.605 L29.990 -22.434 L30.416 -22.251 L30.843 -22.055 L31.271 -21.845 L31.699 -21.623 L32.127 -21.387 L32.555 -21.139 L32.981 -20.877 L33.406 -20.601 L33.829 -20.313 L34.249 -20.011 L34.666 -19.696 L35.080 -19.368 L35.490 -19.026 L35.895 -18.672 L36.295 -18.304 L36.689 -17.924 L37.078 -17.531 L37.460 -17.126 L37.835 -16.709 L38.203 -16.279 L38.563 -15.837 L38.914 -15.384 L39.257 -14.919 L39.591 -14.444 L39.916 -13.957 L40.230 -13.460 L40.534 -12.952 L40.828 -12.435 L41.110 -11.908 L41.381 -11.372 L41.640 -10.827 L41.887 -10.274 L42.122 -9.713 L42.344 -9.144 L42.553 -8.567 L42.749 -7.984 L42.931 -7.395 L43.099 -6.800 L43.254 -6.199 L43.395 -5.593 L43.521 -4.983 L43.632 -4.369 L43.730 -3.752 L43.812 -3.131 L43.880 -2.508 L43.932 -1.883 L43.970 -1.256 L43.992 -0.628 L44.000 -0.000 Z"
    fill="none"
    stroke="#ffb347"
    stroke-width="2"
    stroke-linejoin="round"/>

  <circle cx="0" cy="0" r="4.5" fill="#ffe48b" stroke="#ffcf44" stroke-width="0.8"/>
</svg>
